<svg width="16" height="16" viewBox="0 0 16 16" fill="none" xmlns="http://www.w3.org/2000/svg">
<path d="M8.27507 0.275025C8.4584 0.458359 8.5544 0.691691 8.56307 0.975024C8.57174 1.25836 8.48407 1.49169 8.30007 1.67502L3.40007 6.57502H14.5751C14.8584 6.57502 15.0961 6.67102 15.2881 6.86302C15.4801 7.05502 15.5757 7.29236 15.5751 7.57502C15.5751 7.85836 15.4791 8.09602 15.2871 8.28802C15.0951 8.48002 14.8577 8.57569 14.5751 8.57502H3.40007L8.30007 13.475C8.4834 13.6584 8.57107 13.8917 8.56307 14.175C8.55507 14.4584 8.45907 14.6917 8.27507 14.875C8.09174 15.0584 7.8584 15.15 7.57507 15.15C7.29174 15.15 7.0584 15.0584 6.87507 14.875L0.27507 8.27502C0.17507 8.19169 0.104069 8.08736 0.0620689 7.96202C0.0200689 7.83669 -0.000598002 7.70769 6.86646e-05 7.57502C6.86646e-05 7.44169 0.0207356 7.31669 0.0620689 7.20002C0.103402 7.08336 0.174404 6.97502 0.27507 6.87502L6.87507 0.275025C7.0584 0.091692 7.29174 2.38419e-05 7.57507 2.38419e-05C7.8584 2.38419e-05 8.09174 0.091692 8.27507 0.275025Z" fill="#FBDA33"/>
</svg>
