<svg width="156" height="28" viewBox="0 0 156 28" fill="none" xmlns="http://www.w3.org/2000/svg">
<g clip-path="url(#clip0_114_890)">
<path d="M47.3748 17.3712C47.3748 19.4964 45.4479 21.0364 42.736 21.0364H36.3856V7.84277H42.5207C45.1617 7.84277 47.015 9.30997 47.015 11.3624C47.015 12.754 46.301 13.636 45.2326 14.1484C46.3746 14.588 47.3721 15.7612 47.3721 17.374L47.3748 17.3712ZM39.171 10.262V13.1208H42.4525C43.4528 13.1208 44.0933 12.5356 44.0933 11.7292C44.0933 10.9228 43.3792 10.262 42.4525 10.262H39.171ZM42.7387 18.6172C43.8098 18.6172 44.5948 17.9564 44.5948 17.0044C44.5948 16.0524 43.8807 15.3916 42.7387 15.3916H39.171V18.6172H42.7387Z" fill="#0F1423"/>
<path d="M57.8626 20.9636L53.4391 15.7584H52.725V20.9636H49.8714V7.84277H52.725V12.8996H53.4391L57.7208 7.84277H61.0732L55.723 14.1456L61.5747 20.9636H57.8653H57.8626Z" fill="#0F1423"/>
<path d="M61.5747 14.4396C61.5747 10.4804 64.4283 7.62158 68.4239 7.62158C72.4195 7.62158 75.2731 10.4804 75.2731 14.4396C75.2731 18.3988 72.4195 21.2576 68.4239 21.2576C64.4283 21.2576 61.5747 18.3988 61.5747 14.4396ZM72.2778 14.4396C72.2778 11.9476 70.7079 10.262 68.4239 10.262C66.1399 10.262 64.57 11.9476 64.57 14.4396C64.57 16.9316 66.1399 18.6172 68.4239 18.6172C70.7079 18.6172 72.2778 16.9316 72.2778 14.4396Z" fill="#0F1423"/>
<path d="M86.1888 7.84277H89.0424V20.9636H86.1888V15.6856H80.4816V20.9636H77.628V7.84277H80.4816V13.048H86.1888V7.84277Z" fill="#0F1423"/>
<path d="M95.1775 20.9636V10.4832H90.754V7.84558H102.384V10.4832H97.9603V20.9636H95.1775Z" fill="#0F1423"/>
<path d="M114.657 13.6332V20.9636H112.588L112.018 18.9112C111.375 20.0116 110.021 21.2576 107.952 21.2576C105.385 21.2576 103.529 19.4992 103.529 17.08C103.529 14.6608 105.385 12.9752 109.165 12.9752H111.948C111.806 11.2896 110.95 10.1164 109.38 10.1164C108.096 10.1164 107.241 10.85 106.813 11.6564L104.245 11.2168C104.889 8.94319 107.099 7.62439 109.525 7.62439C112.664 7.62439 114.662 9.82239 114.662 13.636L114.657 13.6332ZM111.874 15.246H109.233C107.093 15.246 106.379 15.9796 106.379 16.9316C106.379 18.032 107.235 18.7628 108.663 18.7628C110.519 18.7628 111.874 17.3712 111.874 15.2432V15.246Z" fill="#0F1423"/>
<path d="M125.643 20.9636L121.22 15.7584H120.506V20.9636H117.652V7.84277H120.506V12.8996H121.22L125.502 7.84277H128.854L123.504 14.1456L129.355 20.9636H125.646H125.643Z" fill="#0F1423"/>
<path d="M134.493 20.9636V10.4832H130.07V7.84558H141.699V10.4832H137.276V20.9636H134.493Z" fill="#0F1423"/>
<path d="M155.967 15.246H145.692C145.978 17.2984 147.404 18.6172 149.546 18.6172C151.045 18.6172 152.187 17.9564 152.827 17.0044L155.466 17.444C154.539 19.936 152.04 21.2548 149.331 21.2548C145.477 21.2548 142.697 18.396 142.697 14.4368C142.697 10.4776 145.48 7.61877 149.331 7.61877C153.182 7.61877 155.967 10.4776 155.967 14.2884C156.038 14.6552 155.967 14.9492 155.967 15.2404V15.246ZM145.907 12.9724H152.972C152.473 11.3596 151.189 10.1864 149.404 10.1864C147.693 10.1136 146.335 11.2868 145.907 12.9724Z" fill="#0F1423"/>
<path fill-rule="evenodd" clip-rule="evenodd" d="M1.91603 1.9684C0 3.9368 0 7.1036 0 13.44V14.56C0 20.8964 0 24.0632 1.91603 26.0316C3.83207 28 6.91462 28 13.0824 28H14.1727C20.3405 28 23.423 28 25.3391 26.0316C27.2551 24.0632 27.2551 20.8964 27.2551 14.56V13.44C27.2551 7.1036 27.2551 3.9368 25.3391 1.9684C23.423 0 20.3405 0 14.1727 0H13.0824C6.91462 0 3.83207 0 1.91603 1.9684ZM4.60066 8.5176C4.74784 15.7976 8.291 20.1712 14.5024 20.1712H14.854V16.0048C17.138 16.2372 18.8633 17.9536 19.5555 20.1712H22.7798C21.894 16.8588 19.5664 15.0248 18.111 14.3248C19.5637 13.4624 21.6078 11.3624 22.0957 8.5148H19.1658C18.5307 10.8248 16.6447 12.9248 14.8513 13.1236V8.5148H11.9214V16.5872C10.1035 16.1196 7.81131 13.8572 7.70774 8.5148H4.59521L4.60066 8.5176Z" fill="#0F1423"/>
</g>
<defs>
<clipPath id="clip0_114_890">
<rect width="156" height="28" fill="white"/>
</clipPath>
</defs>
</svg>
