<svg width="21" height="18" viewBox="0 0 21 18" fill="none" xmlns="http://www.w3.org/2000/svg">
<path fill-rule="evenodd" clip-rule="evenodd" d="M18.0169 0.117221C18.264 0.0132119 18.5345 -0.0226601 18.8002 0.0133381C19.0659 0.0493364 19.317 0.155889 19.5276 0.321906C19.7381 0.487923 19.9003 0.707335 19.9973 0.957304C20.0942 1.20727 20.1224 1.47866 20.0789 1.74322L17.8109 15.5002C17.5909 16.8272 16.1349 17.5882 14.9179 16.9272C13.8999 16.3742 12.3879 15.5222 11.0279 14.6332C10.3479 14.1882 8.26489 12.7632 8.52089 11.7492C8.74089 10.8822 12.2409 7.62422 14.2409 5.68722C15.0259 4.92622 14.6679 4.48722 13.7409 5.18722C11.4379 6.92522 7.74289 9.56822 6.52089 10.3122C5.44289 10.9682 4.88089 11.0802 4.20889 10.9682C2.98289 10.7642 1.84589 10.4482 0.917888 10.0632C-0.336112 9.54322 -0.275112 7.81922 0.916888 7.31722L18.0169 0.117221Z" fill="#FBD13F"/>
</svg>
