<svg width="69" height="41" viewBox="0 0 69 41" fill="none" xmlns="http://www.w3.org/2000/svg">
<path opacity="0.6" d="M1.56169 28.7388C3.68742 37.4555 15.2162 41.6977 28.564 40.3559C45.671 38.6362 67.168 23.3871 67.993 12.7698C68.6357 4.49539 56.4994 0.0303179 37.2503 2.50495C18.5323 4.91191 -1.07403 17.9303 1.56169 28.7388Z" fill="#FBDA33"/>
<path opacity="0.6" d="M68.7685 22.9028C69.2444 13.947 59.4195 6.60715 46.2432 4.09985C29.356 0.887849 4.36306 9.39096 0.512296 19.3303C-2.48888 27.0762 7.85307 34.8023 27.0105 37.9C45.6392 40.9113 68.1786 34.0089 68.7673 22.9028H68.7685Z" fill="#F7A92C"/>
<path opacity="0.6" d="M63.0387 35.9983C68.7073 28.7937 65.43 21.7934 54.5475 12.7792C40.6027 1.22861 16.2772 -3.88633 7.59451 3.34039C0.828355 8.97218 0.0786505 18.9932 16.1821 31.5927C31.8413 43.8445 57.6838 42.8061 63.0387 35.9983Z" fill="#FBDA33"/>
</svg>
