<svg width="128" height="41" viewBox="0 0 128 41" fill="none" xmlns="http://www.w3.org/2000/svg">
<g clip-path="url(#clip0_114_158)">
<path opacity="0.6" d="M1.56169 28.7386C3.68742 37.4552 15.2162 41.6974 28.564 40.3557C45.671 38.6359 67.168 23.3868 67.993 12.7696C68.6357 4.49514 56.4994 0.0300738 37.2503 2.5047C18.5323 4.91166 -1.07403 17.93 1.56169 28.7386Z" fill="#FBDA33"/>
<path opacity="0.6" d="M68.7685 22.9026C69.2444 13.9468 59.4195 6.60691 46.2433 4.09961C29.3561 0.887605 4.36312 9.39072 0.512357 19.3301C-2.48882 27.076 7.85313 34.8021 27.0106 37.8997C45.6393 40.9111 68.1786 34.0087 68.7673 22.9026H68.7685Z" fill="#F7A92C"/>
<path opacity="0.6" d="M63.0388 35.998C68.7074 28.7935 65.4301 21.7931 54.5476 12.779C40.6028 1.22836 16.2773 -3.88657 7.59459 3.34014C0.828431 8.97194 0.0787268 18.993 16.1821 31.5925C31.8414 43.8443 57.6839 42.8059 63.0388 35.998Z" fill="#FBDA33"/>
<path d="M87.6146 10.3662V19.4504H85.4971V15.7262H81.3408V19.4504H79.2233V10.3662H81.3408V13.9481H85.4971V10.3662H87.6146Z" fill="#0F1423"/>
<path d="M91.6463 18.9965C90.8837 18.5893 90.2867 18.0292 89.8555 17.3164C89.4242 16.6023 89.208 15.8008 89.208 14.9094C89.208 14.018 89.423 13.2165 89.8555 12.5024C90.2867 11.7884 90.8837 11.2284 91.6463 10.8224C92.4089 10.4163 93.2644 10.2122 94.215 10.2122C95.1657 10.2122 96.0188 10.4152 96.7767 10.8224C97.5347 11.2295 98.1316 11.7896 98.5676 12.5024C99.0035 13.2165 99.2209 14.0192 99.2209 14.9094C99.2209 15.7996 99.0023 16.6035 98.5676 17.3164C98.1316 18.0304 97.5347 18.5904 96.7767 18.9965C96.0188 19.4036 95.1645 19.6067 94.215 19.6067C93.2656 19.6067 92.4089 19.4036 91.6463 18.9965ZM95.678 17.4459C96.114 17.1997 96.4559 16.8555 96.7039 16.4145C96.9518 15.9735 97.0764 15.4718 97.0764 14.9094C97.0764 14.347 96.9518 13.8454 96.7039 13.4043C96.4548 12.9633 96.1128 12.6191 95.678 12.3729C95.2421 12.1268 94.7544 12.0031 94.2139 12.0031C93.6733 12.0031 93.1857 12.1268 92.7497 12.3729C92.3137 12.6191 91.9718 12.9633 91.7239 13.4043C91.4759 13.8454 91.3514 14.347 91.3514 14.9094C91.3514 15.4718 91.4759 15.9735 91.7239 16.4145C91.9718 16.8555 92.3137 17.1997 92.7497 17.4459C93.1857 17.6921 93.6733 17.8157 94.2139 17.8157C94.7544 17.8157 95.2421 17.6921 95.678 17.4459Z" fill="#0F1423"/>
<path d="M109.206 10.3662V19.4504H107.468L102.906 13.9352V19.4504H100.814V10.3662H102.566L107.114 15.8813V10.3662H109.206Z" fill="#0F1423"/>
<path d="M118.459 17.7633V19.4504H111.376V10.3662H118.29V12.0533H113.481V14.0262H117.729V15.6608H113.481V17.7633H118.461H118.459Z" fill="#0F1423"/>
<path d="M124.444 16.2313V19.4491H122.328V16.2045L118.786 10.365H121.034L123.478 14.4007L125.922 10.365H128.001L124.445 16.2301L124.444 16.2313Z" fill="#0F1423"/>
<path d="M81.0729 31.9822C80.3196 31.5797 79.7274 31.022 79.2949 30.308C78.8637 29.5939 78.6486 28.7877 78.6486 27.8882C78.6486 26.9886 78.8637 26.1812 79.2949 25.4684C79.7262 24.7543 80.3184 24.1966 81.0729 23.7941C81.8261 23.3916 82.6745 23.1909 83.6146 23.1909C84.4078 23.1909 85.1246 23.3298 85.765 23.6063C86.4054 23.8828 86.9436 24.2806 87.3784 24.7998L86.0188 26.0459C85.4007 25.3365 84.6334 24.9818 83.7192 24.9818C83.1528 24.9818 82.6475 25.1055 82.2033 25.3517C81.7591 25.5979 81.4125 25.9421 81.1645 26.3831C80.9166 26.8241 80.792 27.3258 80.792 27.8882C80.792 28.4505 80.9166 28.9522 81.1645 29.3932C81.4136 29.8343 81.7591 30.1785 82.2033 30.4246C82.6475 30.6708 83.1528 30.7945 83.7192 30.7945C84.6334 30.7945 85.4007 30.4351 86.0188 29.7176L87.3784 30.9637C86.9424 31.491 86.4031 31.8935 85.7579 32.1701C85.1128 32.4466 84.3937 32.5854 83.6016 32.5854C82.6686 32.5854 81.8261 32.3847 81.0729 31.9822Z" fill="#0F1423"/>
<path d="M90.47 31.9764C89.7074 31.5692 89.1105 31.0092 88.6792 30.2951C88.2479 29.5811 88.0329 28.7795 88.0329 27.8882C88.0329 26.9968 88.2479 26.1941 88.6792 25.4812C89.1105 24.7672 89.7074 24.2071 90.47 23.8011C91.2327 23.3939 92.0881 23.1909 93.0376 23.1909C93.9871 23.1909 94.8414 23.3939 95.5993 23.8011C96.3572 24.2083 96.9542 24.7683 97.3901 25.4812C97.8261 26.1952 98.0435 26.998 98.0435 27.8882C98.0435 28.7784 97.8261 29.5811 97.3901 30.2951C96.9542 31.0092 96.3572 31.5692 95.5993 31.9764C94.8414 32.3836 93.9871 32.5866 93.0376 32.5866C92.0881 32.5866 91.2315 32.3836 90.47 31.9764ZM94.5018 30.4258C94.9377 30.1796 95.2797 29.8354 95.5276 29.3944C95.7767 28.9534 95.9001 28.4517 95.9001 27.8893C95.9001 27.327 95.7756 26.8253 95.5276 26.3843C95.2797 25.9432 94.9377 25.599 94.5018 25.3529C94.0658 25.1055 93.5781 24.983 93.0376 24.983C92.4971 24.983 92.0094 25.1067 91.5734 25.3529C91.1375 25.599 90.7955 25.9432 90.5476 26.3843C90.2996 26.8253 90.1751 27.327 90.1751 27.8893C90.1751 28.4517 90.2996 28.9534 90.5476 29.3944C90.7967 29.8354 91.1375 30.1796 91.5734 30.4258C92.0094 30.672 92.4971 30.7957 93.0376 30.7957C93.5781 30.7957 94.0658 30.672 94.5018 30.4258Z" fill="#0F1423"/>
<path d="M105.468 32.4301L103.703 29.8995H101.756V32.4301H99.6381V23.3459H103.598C104.409 23.3459 105.112 23.4801 105.709 23.7485C106.306 24.0168 106.765 24.3972 107.087 24.8907C107.409 25.3842 107.571 25.9676 107.571 26.6431C107.571 27.3187 107.408 27.8997 107.081 28.3885C106.754 28.8774 106.29 29.2519 105.689 29.5109L107.74 32.4313H105.467L105.468 32.4301ZM104.932 25.4682C104.6 25.1952 104.118 25.0599 103.481 25.0599H101.756V28.2264H103.481C104.116 28.2264 104.6 28.0875 104.932 27.811C105.263 27.5345 105.429 27.1448 105.429 26.6431C105.429 26.1414 105.263 25.7412 104.932 25.4694V25.4682Z" fill="#0F1423"/>
<path d="M117.636 23.3459V32.4301H115.898L111.336 26.915V32.4301H109.246V23.3459H110.996L115.545 28.8611V23.3459H117.636Z" fill="#0F1423"/>
</g>
<defs>
<clipPath id="clip0_114_158">
<rect width="128" height="41" fill="white" transform="translate(0 -0.000244141)"/>
</clipPath>
</defs>
</svg>
