<svg width="27" height="25" viewBox="0 0 27 25" fill="none" xmlns="http://www.w3.org/2000/svg">
<path d="M0 12.1252C5.47144 12.0621 8.5473 11.7155 10.5999 9.81477C12.6527 7.91407 13.0268 5.06616 13.0951 0C5.95769 0.1946 0.210078 5.51651 0 12.1252Z" fill="black"/>
<path d="M13.9049 0C13.9728 5.06616 14.3469 7.91407 16.4001 9.81477C18.4527 11.7155 21.5286 12.0619 27 12.1252C26.7899 5.51651 21.0423 0.194599 13.9049 0Z" fill="black"/>
<path d="M27 12.8748C21.5286 12.9381 18.4527 13.2844 16.4001 15.1852C14.3473 17.0859 13.9728 19.9338 13.9049 25C21.0423 24.8054 26.7899 19.4835 27 12.8748Z" fill="black"/>
<path d="M13.0951 25C13.0268 19.9338 12.6527 17.0859 10.5999 15.1852C8.5473 13.2845 5.47144 12.9381 0 12.8748C0.210079 19.4835 5.95769 24.8054 13.0951 25Z" fill="black"/>
</svg>
