<svg width="24" height="29" viewBox="0 0 24 29" fill="none" xmlns="http://www.w3.org/2000/svg">
<path d="M20.4853 20.506L12 29L3.51467 20.506C1.83646 18.8261 0.693582 16.6857 0.230571 14.3556C-0.232439 12.0255 0.00520913 9.61022 0.913465 7.41529C1.82172 5.22036 3.35979 3.34432 5.33318 2.02441C7.30656 0.704499 9.62663 0 12 0C14.3734 0 16.6934 0.704499 18.6668 2.02441C20.6402 3.34432 22.1783 5.22036 23.0865 7.41529C23.9948 9.61022 24.2324 12.0255 23.7694 14.3556C23.3064 16.6857 22.1635 18.8261 20.4853 20.506ZM12 14.6815C12.7072 14.6815 13.3855 14.4002 13.8856 13.8996C14.3857 13.399 14.6667 12.7201 14.6667 12.0121C14.6667 11.3041 14.3857 10.6252 13.8856 10.1246C13.3855 9.62395 12.7072 9.34271 12 9.34271C11.2928 9.34271 10.6145 9.62395 10.1144 10.1246C9.61429 10.6252 9.33333 11.3041 9.33333 12.0121C9.33333 12.7201 9.61429 13.399 10.1144 13.8996C10.6145 14.4002 11.2928 14.6815 12 14.6815Z" fill="#FBD13F"/>
</svg>
