<svg width="28" height="28" viewBox="0 0 28 28" fill="none" xmlns="http://www.w3.org/2000/svg">
<path d="M28 13.9965V14.2012C27.9542 16.1209 27.2421 18.3045 24.2308 18.3045C21.1158 18.3045 20.4615 15.962 20.4615 13.9965V8.61161C20.4619 8.46397 20.4318 8.31784 20.3733 8.1823C20.3148 8.04675 20.229 7.92469 20.1213 7.82369C20.0136 7.72269 19.8863 7.64491 19.7473 7.59519C19.6083 7.54546 19.4606 7.52485 19.3133 7.53463C19.0359 7.55845 18.7778 7.6866 18.5912 7.89322C18.4046 8.09984 18.3033 8.36956 18.3077 8.64796V9.18645C17.3355 8.31508 16.1222 7.75865 14.8275 7.59046C13.5329 7.42227 12.2177 7.65021 11.0551 8.24425C9.89258 8.8383 8.93723 9.77059 8.31492 10.9183C7.69262 12.066 7.43255 13.3753 7.56898 14.6738C7.7054 15.9722 8.23192 17.1989 9.07918 18.1922C9.92643 19.1855 11.0547 19.8988 12.3153 20.2382C13.5759 20.5777 14.9098 20.5272 16.1412 20.0936C17.3726 19.66 18.4438 18.8635 19.2137 17.8091C19.3482 18.0445 19.5003 18.2695 19.6687 18.4822C20.3915 19.3815 21.7687 20.4584 24.2308 20.4584C24.6466 20.4598 25.0618 20.4261 25.4719 20.3575C25.5733 20.3406 25.6774 20.353 25.772 20.3934C25.8665 20.4338 25.9475 20.5004 26.0054 20.5853C26.0633 20.6703 26.0957 20.77 26.0987 20.8728C26.1017 20.9755 26.0753 21.077 26.0225 21.1652C24.7568 23.2884 22.9518 25.0389 20.7909 26.2388C18.6299 27.4388 16.1899 28.0455 13.7187 27.9973C6.34442 27.8493 0.296154 21.9205 0.0107691 14.5498C-0.062226 12.6897 0.236433 10.8337 0.889274 9.09045C1.54211 7.34715 2.53603 5.75156 3.81287 4.397C5.08972 3.04245 6.62385 1.95614 8.32552 1.20162C10.0272 0.447102 11.8622 0.039525 13.7233 0.00273475C15.5844 -0.0340555 17.4341 0.300679 19.1643 0.987356C20.8944 1.67403 22.4703 2.69886 23.7997 4.0019C25.129 5.30493 26.1852 6.86 26.9064 8.57613C27.6277 10.2923 27.9994 12.135 28 13.9965ZM9.69231 13.9965C9.69231 14.8486 9.94495 15.6815 10.4183 16.3899C10.8916 17.0983 11.5644 17.6505 12.3515 17.9766C13.1386 18.3026 14.0048 18.3879 14.8404 18.2217C15.676 18.0555 16.4436 17.6452 17.046 17.0427C17.6484 16.4402 18.0587 15.6726 18.2249 14.837C18.3911 14.0013 18.3058 13.1351 17.9798 12.348C17.6538 11.5608 17.1016 10.888 16.3932 10.4146C15.6848 9.94125 14.852 9.6886 14 9.6886C12.8575 9.6886 11.7619 10.1425 10.954 10.9504C10.1462 11.7583 9.69231 12.854 9.69231 13.9965Z" fill="#FBD13F"/>
</svg>
