<svg width="189" height="40" viewBox="0 0 189 40" fill="none" xmlns="http://www.w3.org/2000/svg">
<g clip-path="url(#clip0_114_986)">
<path d="M22.1404 19.4669C21.9733 19.3091 21.7518 19.2225 21.5225 19.2253C21.3005 19.232 21.0841 19.2974 20.8952 19.4148C20.8762 19.4239 20.8608 19.4391 20.8514 19.458C20.842 19.4769 20.8392 19.4984 20.8433 19.5191C20.921 20.0176 20.9337 20.5242 20.881 21.026C20.8333 21.2294 20.72 21.4112 20.5588 21.5431C20.3976 21.6751 20.1975 21.7499 19.9896 21.7558C19.8728 21.756 19.7567 21.7385 19.6453 21.7036L20.0367 21.4383C20.0509 21.429 20.0627 21.4164 20.0709 21.4015C20.0791 21.3866 20.0836 21.37 20.0839 21.353C20.0839 21.3353 20.0796 21.3178 20.0714 21.3021C20.0632 21.2864 20.0513 21.273 20.0367 21.2629L19.2632 20.7275C19.5085 20.5427 19.6641 20.41 19.683 20.391C19.695 20.3825 19.7047 20.3711 19.7113 20.3578C19.7179 20.3446 19.7211 20.33 19.7207 20.3152C19.7213 20.3009 19.7186 20.2866 19.7129 20.2735C19.7072 20.2603 19.6986 20.2487 19.6877 20.2394L19.5509 20.0972C19.5295 20.0798 19.503 20.0698 19.4755 20.0688C19.4537 20.064 19.4312 20.064 19.4094 20.0688C19.4094 20.0688 19.1972 20.2346 18.8859 20.4479L18.5746 20.2346L19.8103 19.429L19.9094 19.6707C19.9163 19.6898 19.9283 19.7065 19.9441 19.7191C19.96 19.7316 19.979 19.7395 19.999 19.7418C20.0183 19.7412 20.037 19.7356 20.0535 19.7257C20.07 19.7157 20.0837 19.7017 20.0933 19.6849L20.6735 18.614C20.6839 18.5968 20.6894 18.5772 20.6894 18.5571C20.6894 18.537 20.6839 18.5174 20.6735 18.5002C20.664 18.4866 20.6513 18.4755 20.6365 18.468C20.6216 18.4606 20.6052 18.457 20.5886 18.4576L19.3387 18.6187C19.3193 18.6213 19.301 18.6294 19.286 18.6419C19.271 18.6545 19.2598 18.6711 19.2538 18.6898C19.2487 18.7089 19.2486 18.7289 19.2535 18.7481C19.2585 18.7672 19.2683 18.7846 19.2821 18.7988L19.4802 18.9741L18.0934 19.9219L16.7162 18.9741L16.9095 18.7988C16.9242 18.7852 16.9346 18.7678 16.9396 18.7485C16.9446 18.7291 16.944 18.7088 16.9378 18.6898C16.9329 18.6705 16.9221 18.6532 16.9068 18.6404C16.8916 18.6277 16.8727 18.6201 16.8529 18.6187L15.6502 18.4386C15.6335 18.437 15.6167 18.4402 15.6016 18.4477C15.5866 18.4553 15.574 18.4669 15.5653 18.4813C15.5548 18.4984 15.5493 18.5181 15.5493 18.5381C15.5493 18.5582 15.5548 18.5779 15.5653 18.595L16.1454 19.666C16.155 19.6827 16.1688 19.6967 16.1853 19.7067C16.2018 19.7166 16.2205 19.7222 16.2398 19.7228C16.2596 19.72 16.2784 19.712 16.2941 19.6995C16.3099 19.687 16.3221 19.6705 16.3294 19.6518L16.4143 19.429L17.6312 20.2725L17.3199 20.4858C17.0039 20.2725 16.8011 20.1114 16.7963 20.1067C16.7746 20.1019 16.7521 20.1019 16.7303 20.1067C16.7026 20.107 16.6759 20.117 16.6548 20.1351L16.5181 20.2773C16.5072 20.2866 16.4986 20.2982 16.4929 20.3114C16.4872 20.3245 16.4845 20.3388 16.485 20.3531C16.4916 20.3622 16.4996 20.3702 16.5086 20.3768C16.5086 20.3768 16.6831 20.5284 16.9284 20.7132L16.1501 21.2487C16.137 21.2597 16.1264 21.2735 16.119 21.289C16.1117 21.3046 16.1078 21.3216 16.1077 21.3388C16.108 21.3558 16.1125 21.3724 16.1207 21.3873C16.129 21.4022 16.1407 21.4148 16.1549 21.4241L16.5464 21.6894C16.4349 21.7243 16.3188 21.7418 16.202 21.7416C15.9942 21.7357 15.794 21.6609 15.6328 21.5289C15.4716 21.3969 15.3583 21.2151 15.3106 21.0118C15.258 20.51 15.2706 20.0034 15.3483 19.5049C15.3524 19.4842 15.3496 19.4627 15.3402 19.4438C15.3308 19.4249 15.3154 19.4097 15.2964 19.4006C15.1089 19.2839 14.8942 19.2186 14.6738 19.2111C14.4429 19.2076 14.2198 19.2942 14.0512 19.4527C14.0341 19.4688 14.024 19.4909 14.0229 19.5143C14.0229 19.5807 13.8955 21.0923 14.5936 21.8553C14.7207 21.9932 14.8757 22.1022 15.0482 22.1749C15.2206 22.2476 15.4066 22.2825 15.5936 22.277C15.669 22.2817 15.7446 22.2817 15.82 22.277C16.2164 22.2275 16.6057 22.132 16.9803 21.9927L17.6218 22.4334L16.2067 23.3812C16.1922 23.3912 16.1803 23.4046 16.1721 23.4203C16.1638 23.436 16.1596 23.4535 16.1596 23.4712C16.1599 23.4882 16.1644 23.5049 16.1726 23.5197C16.1808 23.5346 16.1926 23.5472 16.2067 23.5565L17.6218 24.5517L16.4001 25.4046L16.3058 25.163C16.297 25.1493 16.2852 25.138 16.2713 25.1297C16.2574 25.1215 16.2417 25.1167 16.2256 25.1156C16.2064 25.1162 16.1876 25.1218 16.1711 25.1317C16.1546 25.1417 16.1409 25.1557 16.1313 25.1724L15.5653 26.2529C15.5547 26.2691 15.5491 26.288 15.5491 26.3074C15.5491 26.3267 15.5547 26.3457 15.5653 26.3619C15.574 26.3762 15.5866 26.3879 15.6016 26.3954C15.6167 26.4029 15.6335 26.4061 15.6502 26.4045L16.8529 26.2244C16.8727 26.2231 16.8916 26.2155 16.9068 26.2027C16.9221 26.1899 16.9329 26.1727 16.9378 26.1534C16.9444 26.1337 16.9452 26.1125 16.9402 26.0923C16.9352 26.0722 16.9246 26.0539 16.9095 26.0396L16.7114 25.8643L18.0934 24.9165L19.4802 25.8643L19.2821 26.0396C19.2671 26.0539 19.2564 26.0722 19.2514 26.0923C19.2464 26.1125 19.2472 26.1337 19.2538 26.1534C19.2587 26.1727 19.2695 26.1899 19.2848 26.2027C19.3 26.2155 19.3189 26.2231 19.3387 26.2244L20.5414 26.4045C20.5594 26.4048 20.5771 26.4005 20.5928 26.3919C20.6086 26.3833 20.6218 26.3708 20.6313 26.3555C20.6408 26.3403 20.6462 26.3228 20.647 26.3048C20.6478 26.2868 20.6439 26.2689 20.6358 26.2529L20.0556 25.1772C20.046 25.1604 20.0323 25.1464 20.0158 25.1365C19.9993 25.1265 19.9805 25.1209 19.9613 25.1203C19.942 25.1207 19.9232 25.1267 19.9073 25.1377C19.8914 25.1486 19.879 25.164 19.8717 25.1819L19.7726 25.4236L18.5557 24.5706L19.9707 23.5755C19.9849 23.5662 19.9966 23.5536 20.0048 23.5387C20.0131 23.5238 20.0175 23.5072 20.0179 23.4902C20.0179 23.4724 20.0136 23.455 20.0054 23.4393C19.9972 23.4236 19.9853 23.4102 19.9707 23.4001L18.5557 22.4524L19.2019 22.0117C19.573 22.1529 19.9592 22.2499 20.3528 22.3007C20.4282 22.3053 20.5038 22.3053 20.5792 22.3007C20.7662 22.3068 20.9524 22.2722 21.1249 22.1995C21.2975 22.1267 21.4524 22.0174 21.5791 21.879C22.2772 21.116 22.1593 19.6044 22.1498 19.538C22.1541 19.5139 22.1508 19.4891 22.1404 19.4669ZM18.0982 20.5758L18.4048 20.7891L18.0982 20.9786L17.7963 20.7891L18.0982 20.5758ZM16.9803 21.3482L17.4048 21.0544L17.6642 21.225C17.4991 21.3151 17.3341 21.3956 17.1642 21.4762L16.9803 21.3482ZM19.1877 23.4949L18.0934 24.2531L17.0086 23.4949L18.0982 22.7462L19.1877 23.4949ZM18.0934 22.1112L17.5699 21.7463C17.7554 21.661 17.9299 21.571 18.0934 21.4762C18.2632 21.571 18.4378 21.661 18.6264 21.7463L18.0934 22.1112ZM19.0368 21.4762C18.867 21.3956 18.6972 21.3151 18.5321 21.225L18.7915 21.0544L19.2207 21.3482L19.0368 21.4762Z" fill="#0F1423"/>
<path d="M36.2482 16.6094C35.6448 16.3221 34.97 16.2215 34.3096 16.3203C35.4888 15.9081 36.2906 15.0314 36.3331 14.2448C35.7383 14.1087 35.1191 14.1233 34.5313 14.2874C35.102 13.8562 36.0407 13.0743 35.9463 11.918C35.3945 11.7853 34.3804 12.1739 33.9511 12.3635C35.3096 11.5958 35.7954 9.78557 35.0784 8.75726C34.6539 9.00841 32.7201 10.9987 32.3993 11.2309C33.154 10.4352 33.7454 9.4981 34.1398 8.47293C34.4653 7.62469 34.4841 6.15093 33.4417 5.6581C32.5399 7.48598 31.4793 9.23031 30.2721 10.8707C30.1683 10.776 30.0834 10.648 29.9466 10.6291C29.6411 11.4778 29.117 12.23 28.4278 12.8089C28.3687 12.6682 28.3026 12.5306 28.2297 12.3966C27.5741 13.3823 25.8713 14.7329 25.3195 15.5621C25.2043 15.684 25.1162 15.8291 25.0609 15.9877C25.0056 16.1463 24.9843 16.3149 24.9986 16.4824C25.0129 16.6498 25.0623 16.8123 25.1436 16.9592C25.2249 17.1061 25.3363 17.234 25.4704 17.3344C25.7063 17.5761 26.1685 18.0073 25.7723 18.5997C25.5343 18.9499 25.1677 19.1909 24.753 19.27C24.3383 19.3491 23.9093 19.2597 23.5601 19.0214C23.5601 18.8793 23.5601 18.7466 23.5601 18.6186C23.7216 18.5417 23.8627 18.4275 23.972 18.2855C24.0813 18.1435 24.1557 17.9776 24.1893 17.8013C24.2228 17.6249 24.2145 17.4431 24.165 17.2706C24.1155 17.0981 24.0263 16.9398 23.9045 16.8084C23.7985 17.0275 23.6128 17.1972 23.3856 17.2823C23.3553 17.1533 23.3159 17.0266 23.2677 16.9032L23.2394 16.8463H23.1781C23.1781 16.8463 22.947 16.8463 22.6074 16.7895C22.8001 16.7265 22.964 16.5963 23.0696 16.4225C23.1751 16.2487 23.2153 16.0427 23.1828 15.8417C22.9917 16.0025 22.7451 16.0808 22.4968 16.0595C22.2484 16.0382 22.0186 15.919 21.8574 15.728C21.6682 15.4959 21.5391 15.2205 21.4815 14.9261C21.4239 14.6318 21.4396 14.3277 21.5272 14.041C21.7478 13.2571 22.1805 12.5501 22.7772 11.9986C22.822 12.0564 22.8803 12.1022 22.9469 12.132C23.0136 12.1617 23.0865 12.1745 23.1592 12.1692C23.2866 12.1265 23.4988 12.0175 23.6545 11.9559C23.8491 11.8987 24.0533 11.8821 24.2545 11.9074C24.4557 11.9327 24.6497 11.9992 24.8242 12.1028C24.9934 12.1802 25.1319 12.3124 25.2174 12.4782C25.3029 12.6441 25.3306 12.8339 25.2959 13.0174C26.0742 12.5767 25.8053 11.8422 24.7818 11.5721C25.4799 11.5721 26.0553 12.2118 26.1968 12.2924C26.3838 12.4102 26.5976 12.4781 26.8179 12.4897C27.0383 12.5013 27.258 12.4562 27.4562 12.3587C28.0741 12.0602 28.1967 11.3304 28.0316 11.1835C27.9996 11.3276 27.9222 11.4575 27.8109 11.554C27.6996 11.6504 27.5603 11.7083 27.4137 11.719C26.8973 11.7252 26.3888 11.5909 25.9421 11.3304C25.5357 11.1743 25.1036 11.0971 24.6686 11.1029C25.3667 10.7144 26.4515 10.757 26.8383 11.3541C26.9599 11.2686 27.062 11.158 27.1376 11.0297C27.2133 10.9014 27.2608 10.7584 27.2769 10.6101C27.475 9.56759 26.6638 9.02737 25.7959 9.02737C25.7959 8.77621 25.6402 8.653 25.4091 8.7383C25.4136 8.69565 25.4083 8.65252 25.3936 8.61225C25.3789 8.57199 25.3551 8.53567 25.3242 8.5061H25.3902C26.1769 8.49993 26.9364 8.21649 27.5364 7.70525C28.3193 6.86175 27.0647 5.80974 27.5364 4.97097C27.9501 5.21107 28.399 5.38381 28.8665 5.48276C28.935 5.64632 28.981 5.8185 29.0033 5.99455C29.1919 6.9423 28.2769 7.08447 28.5316 8.07961C28.6354 8.52979 28.9703 8.68617 29.0835 9.22165C29.0885 9.35204 29.0659 9.48201 29.0171 9.60294C28.9683 9.72386 28.8945 9.83297 28.8004 9.92299C28.9526 9.94139 29.1069 9.91942 29.2479 9.85929C29.389 9.79916 29.5119 9.70295 29.6045 9.58025C29.697 9.45755 29.756 9.31263 29.7755 9.15992C29.7949 9.00722 29.7743 8.85205 29.7155 8.70987C29.6164 8.46819 29.3523 8.23599 29.3523 7.95166C29.7155 8.45397 30.0457 8.43502 30.6588 8.24547C30.9277 8.16017 30.9513 8.53927 30.7815 8.84255C30.9276 8.75887 31.051 8.64029 31.1407 8.4973C31.2304 8.35431 31.2836 8.19132 31.2956 8.02275C31.3034 7.94114 31.2913 7.85884 31.2602 7.78304C31.2291 7.70724 31.18 7.64024 31.1172 7.58789C31.0544 7.53554 30.9798 7.49944 30.8999 7.48272C30.82 7.46601 30.7372 7.46919 30.6588 7.492C30.4843 7.492 30.1259 7.75264 30.107 7.4067C30.0315 6.80962 30.9702 6.82857 30.7815 5.8666C30.6824 5.39273 30.1447 5.12262 29.3146 5.01836C29.1673 4.87973 29.0316 4.72916 28.9089 4.56818C28.4373 3.80524 27.9656 3.62042 27.6967 3.76259C27.4279 3.90475 27.1873 4.07535 26.9185 4.23646C26.6989 4.31293 26.4957 4.43029 26.3194 4.5824C25.9563 5.03258 26.3194 5.73392 26.4892 6.16515C26.7298 6.53653 26.8333 6.98086 26.7817 7.42092C26.6355 7.93271 25.7912 8.25968 25.2818 8.36868H25.1921V8.16965C25.3386 7.89272 25.4662 7.60616 25.5742 7.31193C25.9185 6.38787 25.4044 6.0135 24.6308 5.83343C24.5841 5.80044 24.53 5.77932 24.4733 5.77189C24.4167 5.76446 24.359 5.77095 24.3054 5.79078H24.2818V5.94716L24.178 5.91873V5.72918H24.1309C24.1725 5.69812 24.2059 5.65723 24.2282 5.61012C24.2504 5.56301 24.2607 5.51114 24.2582 5.45907C24.2584 5.36456 24.2305 5.27214 24.178 5.1937H24.2771L24.2346 5.15105C24.2042 5.0942 24.1624 5.04421 24.112 5.00415C24.0919 4.98153 24.0788 4.95355 24.0743 4.92359C24.0963 4.9497 24.1236 4.97071 24.1545 4.98519C24.1999 5.02136 24.2411 5.0627 24.2771 5.1084L24.3431 5.15105V4.2649L24.2771 4.31702C24.2771 4.31702 24.1969 4.37863 24.1545 4.42128C24.112 4.46393 24.0931 4.46393 24.0743 4.48762C24.0554 4.51131 24.0743 4.44497 24.112 4.40232C24.1645 4.36852 24.2069 4.32102 24.2346 4.2649L24.2771 4.20329H23.4234L23.4658 4.2649C23.5137 4.30833 23.5594 4.35419 23.6026 4.40232C23.6184 4.43385 23.6391 4.46265 23.6639 4.48762C23.6639 4.48762 23.6026 4.48762 23.579 4.42128C23.5554 4.35493 23.4658 4.34072 23.4234 4.31702L23.3856 4.2649V5.12262L23.4234 5.07997C23.4732 5.03985 23.5269 5.00492 23.5837 4.97571C23.5837 4.97571 23.6498 4.93306 23.6686 4.91411C23.6875 4.89515 23.6262 4.97571 23.6073 4.99467C23.5678 5.049 23.5219 5.09833 23.4705 5.14157L23.4281 5.18422H23.5837C23.5493 5.21859 23.523 5.26026 23.5066 5.30617C23.4903 5.35209 23.4844 5.40109 23.4894 5.44959C23.4887 5.50003 23.4983 5.55008 23.5178 5.59657C23.5373 5.64306 23.5662 5.68498 23.6026 5.7197V5.90925L23.4894 5.93768V5.7813H23.4658C23.4146 5.76144 23.3591 5.75493 23.3047 5.76239C23.2503 5.76985 23.1986 5.79103 23.1545 5.82395C22.381 6.00403 21.8715 6.37839 22.2112 7.30245C22.3148 7.59921 22.4442 7.88623 22.5979 8.16017V8.29759C21.6462 7.95156 20.7815 7.39995 20.065 6.68167L19.9707 6.55846V6.00403C20.2476 5.51867 20.4812 5.00963 20.6688 4.48288C21.1405 3.15129 20.4377 2.58737 19.2962 2.36939C19.2305 2.31728 19.1522 2.28367 19.0693 2.27201C18.9864 2.26035 18.9019 2.27106 18.8245 2.30304L18.7868 2.51629H18.5462V2.24618C18.5059 2.25534 18.464 2.25534 18.4236 2.24618C18.507 2.19835 18.5766 2.12948 18.6254 2.04637C18.6742 1.96326 18.7006 1.86879 18.7019 1.7723C18.703 1.69285 18.6857 1.61423 18.6513 1.54267C18.6169 1.47111 18.5664 1.40858 18.5038 1.36003H18.7019C18.5558 1.22874 18.4399 1.06703 18.3623 0.886151C18.5417 0.967257 18.7024 1.08508 18.834 1.23208V0.127947C18.7302 0.208506 18.5085 0.421751 18.3623 0.440706C18.4491 0.272431 18.5676 0.122743 18.7113 0L17.6265 0C17.7114 0.104253 17.9236 0.317498 17.9425 0.440706C17.8151 0.440706 17.6076 0.208506 17.4944 0.127947V1.21786C17.6173 1.07931 17.7624 0.962382 17.9236 0.871935C17.9236 1.0141 17.6925 1.23682 17.6076 1.34581H17.7963C17.7357 1.39557 17.6872 1.45857 17.6545 1.53002C17.6218 1.60147 17.6057 1.67947 17.6076 1.75809C17.607 1.8544 17.6321 1.94913 17.6802 2.03245C17.7283 2.11577 17.7977 2.18465 17.8812 2.23196C17.8328 2.24009 17.7834 2.24009 17.735 2.23196V2.50207H17.4991V2.28883C17.4217 2.25685 17.3372 2.24614 17.2543 2.2578C17.1715 2.26945 17.0931 2.30306 17.0275 2.35517C15.8907 2.58737 15.1691 3.13707 15.6596 4.46866C15.8312 5.00183 16.0655 5.51249 16.3577 5.98981V6.5632C16.3335 6.59986 16.3067 6.63471 16.2775 6.66746C15.9143 7.18398 14.5134 8.03222 13.7446 8.28338V8.14595C13.9041 7.87723 14.0398 7.59498 14.1502 7.30245C14.4946 6.37839 13.9804 6.00403 13.2069 5.82395C13.1619 5.79101 13.1094 5.76986 13.0543 5.76242C12.9991 5.75497 12.9429 5.76146 12.8909 5.7813L12.8673 5.93768L12.7635 5.90925V5.7197C12.8306 5.64594 12.8677 5.54952 12.8673 5.44959C12.8725 5.40185 12.8677 5.35353 12.853 5.3078C12.8384 5.26207 12.8143 5.21996 12.7824 5.18422H12.9097L12.8673 5.14157C12.8194 5.09897 12.7781 5.04946 12.7446 4.99467C12.7446 4.99467 12.6928 4.93306 12.6692 4.91411C12.6456 4.89515 12.7446 4.95676 12.7635 4.97571C12.815 5.01343 12.8638 5.05459 12.9097 5.09892L12.9522 5.14157V4.2649L12.9097 4.31702C12.8673 4.31702 12.8248 4.37863 12.7635 4.42128C12.7022 4.46393 12.6928 4.46393 12.6692 4.48762C12.6949 4.46954 12.7172 4.44709 12.7352 4.42128C12.773 4.3655 12.8156 4.31317 12.8626 4.2649L12.905 4.20329H12.0513L12.0937 4.2649C12.1266 4.31451 12.1646 4.36057 12.2069 4.40232C12.2494 4.44497 12.2683 4.46393 12.2683 4.48762C12.2683 4.51131 12.2305 4.48762 12.1881 4.42128C12.1456 4.35493 12.0702 4.34072 12.0513 4.31702L11.99 4.2649V5.12262L12.0513 5.07997C12.0904 5.03213 12.1365 4.99058 12.1881 4.95676C12.2189 4.94228 12.2463 4.92126 12.2683 4.89515C12.2657 4.91272 12.2587 4.92933 12.248 4.94343C12.2373 4.95753 12.2231 4.96864 12.2069 4.97571C12.1645 5.04206 12.1126 5.07997 12.0937 5.12262L12.0513 5.16526H12.1645C12.1026 5.23964 12.0692 5.33372 12.0702 5.43064C12.0683 5.48362 12.0799 5.5362 12.1038 5.58345C12.1277 5.6307 12.1632 5.67106 12.2069 5.70075H12.1645L12.1881 5.8903L12.0702 5.91873V5.76235C12.0182 5.74207 11.9619 5.73535 11.9067 5.74281C11.8514 5.75026 11.7989 5.77166 11.7541 5.805C10.9853 5.98507 10.4712 6.35944 10.8108 7.2835C10.9144 7.58026 11.0438 7.86727 11.1976 8.14122V8.34024H11.1127C10.6032 8.23599 9.74951 7.90902 9.60329 7.39249C9.55011 6.9642 9.64146 6.53037 9.86271 6.16041C10.0608 5.72918 10.3957 5.02784 10.042 4.57766C9.86086 4.42509 9.65505 4.30488 9.43349 4.22225C9.16464 4.07535 8.99483 3.92844 8.65523 3.74837C8.31562 3.5683 7.9147 3.79102 7.44302 4.55396C7.32302 4.71718 7.18714 4.86798 7.03738 5.00415C6.21195 5.1084 5.68368 5.36903 5.57048 5.85239C5.37709 6.80014 6.31572 6.80014 6.25441 7.39249C6.25441 7.73842 5.87235 7.49674 5.70255 7.47779C5.62358 7.45305 5.53974 7.44838 5.45854 7.4642C5.37734 7.48002 5.30131 7.51584 5.23727 7.56843C5.17323 7.62103 5.12319 7.68877 5.09161 7.76558C5.06003 7.84238 5.04792 7.92586 5.05635 8.00853C5.06959 8.17678 5.1233 8.33929 5.21285 8.48209C5.30241 8.62489 5.42513 8.74371 5.57048 8.82834C5.40067 8.52505 5.41954 8.14595 5.70255 8.23125C6.29686 8.4208 6.64589 8.43976 7.0138 7.92323C7.0138 8.20756 6.76853 8.43976 6.65533 8.68143C6.59502 8.82358 6.57318 8.9792 6.59202 9.13255C6.61086 9.2859 6.6697 9.43153 6.76259 9.55467C6.85548 9.67782 6.97911 9.77412 7.12097 9.8338C7.26282 9.89349 7.41786 9.91445 7.57038 9.89456C7.47198 9.80839 7.39574 9.69964 7.34811 9.57755C7.30048 9.45545 7.28288 9.32361 7.29681 9.19322C7.40057 8.65774 7.73546 8.50136 7.84866 8.05118C8.07979 7.05604 7.16474 6.89966 7.37699 5.96612C7.40035 5.79129 7.44306 5.61963 7.50434 5.45433C7.97404 5.35784 8.42492 5.18497 8.83918 4.94254C9.2684 5.76709 8.03262 6.83805 8.8156 7.67682C9.4184 8.1863 10.1787 8.46941 10.9664 8.47767H11.0325C10.9998 8.50605 10.9745 8.54207 10.9589 8.58255C10.9432 8.62303 10.9377 8.66675 10.9429 8.70987C10.7164 8.62457 10.5372 8.74778 10.5702 8.99893C9.67405 8.99893 8.88163 9.53915 9.07974 10.5817C9.08643 10.7378 9.12859 10.8902 9.20299 11.0274C9.27739 11.1646 9.38205 11.2828 9.50896 11.3731C9.88158 10.776 10.9664 10.7333 11.6739 11.1219C11.2373 11.1153 10.8035 11.1925 10.3957 11.3494C9.95563 11.5924 9.45911 11.7135 8.9571 11.7C8.80931 11.6898 8.66867 11.6323 8.55578 11.5359C8.44289 11.4396 8.36369 11.3094 8.32977 11.1646C8.16469 11.3115 8.28732 12.0412 8.90993 12.3398C9.10729 12.4373 9.32623 12.4824 9.54586 12.4708C9.76549 12.4592 9.9785 12.3912 10.1646 12.2734C10.3108 12.1929 10.8815 11.5531 11.5796 11.5531C10.5655 11.8232 10.2825 12.5578 11.0749 12.9985C11.0325 12.8186 11.0529 12.6295 11.1328 12.463C11.2127 12.2965 11.3471 12.1626 11.5136 12.0839C11.6883 11.9805 11.8822 11.9141 12.0833 11.8889C12.2845 11.8636 12.4887 11.88 12.6833 11.937C12.839 11.9986 13.0465 12.1076 13.155 12.1502C13.2278 12.156 13.3008 12.1434 13.3676 12.1136C13.4343 12.0838 13.4925 12.0378 13.5371 11.9796C14.1306 12.5346 14.5641 13.2402 14.7917 14.022C14.8822 14.3088 14.8989 14.6138 14.8403 14.9088C14.7818 15.2038 14.6498 15.4791 14.4568 15.709C14.2958 15.8987 14.0669 16.0169 13.8197 16.0382C13.5725 16.0595 13.3269 15.9821 13.1361 15.8228C13.1037 16.0237 13.1438 16.2298 13.2494 16.4036C13.3549 16.5774 13.5189 16.7075 13.7116 16.7705L13.1267 16.8274H13.0654L13.0418 16.8843C12.9936 17.0077 12.9542 17.1343 12.9239 17.2634C12.7003 17.1762 12.5181 17.0068 12.4145 16.7895C12.2923 16.9197 12.2025 17.0771 12.1523 17.2488C12.1021 17.4205 12.093 17.6017 12.1256 17.7776C12.1583 17.9536 12.2318 18.1193 12.3401 18.2613C12.4485 18.4033 12.5887 18.5176 12.7494 18.595C12.7494 18.7276 12.7494 18.8651 12.7494 19.0072C12.4025 19.2413 11.9776 19.3278 11.5675 19.2479C11.1573 19.1679 10.7954 18.9281 10.5608 18.5807C10.1552 17.9884 10.6221 17.5572 10.8532 17.3155C10.984 17.2156 11.0928 17.0896 11.1726 16.9454C11.2525 16.8011 11.3018 16.6418 11.3173 16.4775C11.3328 16.3132 11.3142 16.1475 11.2628 15.9907C11.2113 15.834 11.1281 15.6897 11.0183 15.5669C10.4665 14.7376 8.76843 13.387 8.1128 12.4014C8.03371 12.5307 7.97036 12.6691 7.92413 12.8136C7.2294 12.2368 6.70026 11.4844 6.39119 10.6338C6.26384 10.6338 6.17422 10.7807 6.07045 10.8755C4.86499 9.23387 3.80442 7.48971 2.9008 5.66284C1.8867 6.16041 1.8867 7.62469 2.21215 8.47293C2.61375 9.49333 3.20254 10.4289 3.94792 11.2309C3.63661 10.9987 1.70275 9.00367 1.27352 8.75726C0.551859 9.78557 1.0424 11.6005 2.39611 12.3635C1.98103 12.1739 0.943349 11.7853 0.40564 11.918C0.301872 13.0743 1.23107 13.8562 1.82066 14.2874C1.22692 14.1201 0.600855 14.1055 0 14.2448C0.0424507 15.0314 0.853731 15.9081 1.9999 16.3203C1.34562 16.2239 0.677568 16.3245 0.0801847 16.6094C0.165086 17.4292 1.08485 18.1306 2.18857 18.3011C1.52732 18.3529 0.911841 18.6604 0.471675 19.1589C0.68593 19.4569 0.970441 19.6969 1.29972 19.8574C1.62899 20.0178 1.99274 20.0937 2.35837 20.0782C2.11302 20.1715 1.88973 20.3151 1.70275 20.4999C1.67318 20.4726 1.63446 20.4573 1.59426 20.4573C1.57361 20.4693 1.55795 20.4883 1.55015 20.5109C1.54236 20.5336 1.54294 20.5583 1.55181 20.5805V20.6137C1.51441 20.6364 1.48211 20.6666 1.45694 20.7025C1.43178 20.7384 1.41429 20.7792 1.40559 20.8222C1.31912 20.9432 1.24635 21.0735 1.18862 21.2108C1.21084 21.2222 1.23146 21.2365 1.24994 21.2534C1.24153 21.3342 1.26339 21.4153 1.31126 21.4809C1.27342 21.5318 1.24615 21.5898 1.23107 21.6515L0.698078 21.4382C0.669428 21.639 0.683181 21.8437 0.738441 22.0388C0.793701 22.2339 0.889232 22.4152 1.01882 22.5708C1.2122 22.7935 1.42917 22.7603 1.36314 22.8362L1.93858 23.1868C1.95646 23.2307 1.9835 23.2703 2.01788 23.3028C2.05227 23.3353 2.09319 23.36 2.1379 23.3753C2.1826 23.3906 2.23005 23.396 2.27703 23.3913C2.32402 23.3866 2.36945 23.3718 2.41026 23.3479V23.3906C2.417 23.4969 2.45517 23.5988 2.51986 23.6832C2.58456 23.7676 2.67285 23.8307 2.77345 23.8645C2.73571 24.054 2.8159 24.1772 3.08003 24.2625L5.24502 29.5415C5.19905 29.6398 5.19304 29.7522 5.22827 29.8549C5.2635 29.9575 5.3372 30.0423 5.43369 30.0912C5.37931 30.1651 5.35109 30.2552 5.35351 30.3471C5.43369 30.2855 5.56104 30.2618 5.62236 30.4419C5.68368 30.622 5.43369 30.9726 5.78273 31.2475C5.76088 31.37 5.78181 31.4963 5.84197 31.6051C5.90213 31.7139 5.99783 31.7985 6.1129 31.8446C6.1129 31.9678 6.2261 32.38 6.24497 32.5222C6.09404 32.7449 5.73556 33.0814 5.7733 33.47C5.77428 33.5683 5.80985 33.6632 5.87372 33.7378C5.93759 33.8124 6.02565 33.8619 6.12234 33.8775C6.04215 34.3514 6.30157 34.5599 6.69778 34.5836C6.71187 34.7151 6.77433 34.8366 6.87292 34.9242C6.97151 35.0119 7.09913 35.0594 7.23077 35.0575C7.38965 35.1827 7.56025 35.2922 7.74018 35.3844C7.53264 35.6308 7.67886 35.9578 8.06092 36.0621C8.08643 36.1453 8.13426 36.2198 8.19916 36.2775C8.26406 36.3352 8.34352 36.3738 8.42882 36.389C8.47675 36.4664 8.5508 36.5238 8.63742 36.5508C8.72404 36.5778 8.81743 36.5725 8.9005 36.5359C8.96884 36.4806 9.01669 36.4038 9.03636 36.3179C9.05604 36.2319 9.04639 36.1418 9.00898 36.0621C9.03934 35.9935 9.05303 35.9186 9.04893 35.8436C9.04483 35.7686 9.02306 35.6957 8.9854 35.6308C9.04244 35.5307 9.05809 35.412 9.02899 35.3004C8.99988 35.1887 8.92834 35.093 8.82975 35.0338C8.83402 34.8808 8.80505 34.7288 8.74485 34.5883L9.56084 34.0718C10.2873 33.4873 11.1608 33.1165 12.0843 33.0008C12.3984 32.9791 12.7136 32.9791 13.0277 33.0008C13.4144 33.0435 13.9427 33.1572 14.254 32.9155C14.302 32.8901 14.3411 32.8507 14.3664 32.8025C14.3916 32.7543 14.4018 32.6995 14.3955 32.6454C14.3531 32.4037 14.0889 32.1715 14.0087 31.9725C13.9852 31.9062 13.9427 31.8114 13.905 31.7261C14.1315 31.7694 14.3656 31.7464 14.5795 31.6598C14.7468 31.5889 14.8892 31.4693 14.9884 31.3165C15.0876 31.1636 15.139 30.9845 15.136 30.802C14.8153 30.9584 14.0323 31.1669 13.9474 30.3708C13.8625 29.6695 14.4804 29.0724 15.4426 29.333C16.0983 29.5036 17.0558 30.9063 16.1784 31.5129C15.7539 31.8067 15.0983 32.0862 15.1785 32.8539C15.312 32.6816 15.488 32.5473 15.689 32.4642C15.89 32.3811 16.1091 32.3521 16.3247 32.38C15.603 32.9108 15.0559 32.9724 14.3012 33.3847C13.6455 33.7685 13.1597 34.4082 12.6456 34.4319C12.2494 34.4319 12.0324 33.9581 12.4145 33.6121C12.1964 33.5906 11.9771 33.6402 11.7894 33.7538C11.6016 33.8673 11.4552 34.0387 11.3721 34.2424C11.2776 34.4428 11.256 34.6702 11.3112 34.8849C11.3664 35.0996 11.4947 35.2881 11.6739 35.4176C11.4186 35.5422 11.2144 35.7523 11.0965 36.0117C10.9786 36.2712 10.9543 36.5637 11.0278 36.8392C11.1881 37.4174 11.7588 37.4174 11.5419 38.1519C11.6918 38.1147 11.829 38.0373 11.9386 37.928C12.0483 37.8186 12.1263 37.6815 12.1645 37.5311C12.1812 37.3335 12.2459 37.1431 12.3532 36.9767C12.335 37.2649 12.4018 37.5522 12.5453 37.8025C12.6887 38.0528 12.9024 38.2551 13.1597 38.3841C13.4048 38.5183 13.6868 38.5682 13.9627 38.5263C14.2387 38.4844 14.4934 38.3529 14.6879 38.1519C14.8151 38.4655 15.0335 38.7332 15.3146 38.92C15.5957 39.1069 15.9263 39.2041 16.2633 39.1991C16.5749 39.1838 16.8772 39.0875 17.1407 38.9196C17.347 39.3829 17.7071 39.7598 18.1595 39.9858C18.6181 39.7606 18.986 39.3843 19.2019 38.9196C19.4615 39.0881 19.761 39.1846 20.0698 39.1991C20.4061 39.2009 20.7353 39.1024 21.0158 38.9159C21.2963 38.7295 21.5153 38.4636 21.6451 38.1519C21.8397 38.3529 22.0944 38.4844 22.3704 38.5263C22.6463 38.5682 22.9283 38.5183 23.1734 38.3841C23.426 38.2558 23.6365 38.057 23.7796 37.8116C23.9226 37.5662 23.9922 37.2845 23.9799 37.0004C24.0927 37.1648 24.161 37.3558 24.178 37.5548C24.211 37.7061 24.2861 37.8449 24.3947 37.9548C24.5033 38.0647 24.6409 38.1413 24.7912 38.1756C24.5742 37.4411 25.1591 37.4411 25.3006 36.8629C25.3758 36.5885 25.3533 36.2964 25.237 36.0369C25.1208 35.7774 24.9181 35.5668 24.6639 35.4413C24.8469 35.315 24.9777 35.1258 25.0315 34.9093C25.0854 34.6929 25.0586 34.4641 24.9563 34.2661C24.8728 34.0632 24.7261 33.893 24.5381 33.7811C24.3502 33.6691 24.1311 33.6215 23.9139 33.6453C24.3007 34.0102 24.0931 34.4841 23.6875 34.4651C23.1734 34.4651 22.6875 33.8017 22.0272 33.4178C21.2772 33.0056 20.7254 32.944 20.0084 32.4132C20.2234 32.3842 20.4421 32.4127 20.6426 32.4959C20.843 32.5792 21.018 32.7141 21.1499 32.8871C21.2348 32.1194 20.5792 31.8398 20.1499 31.546C19.2868 30.9395 20.2348 29.5368 20.9046 29.3662C21.848 29.1056 22.4753 29.7026 22.381 30.404C22.2772 31.2001 21.5178 30.9916 21.1735 30.8352C21.1843 31.0114 21.2439 31.1811 21.3456 31.3251C21.4473 31.4691 21.587 31.5818 21.7489 31.6503C21.8879 31.7087 22.037 31.7387 22.1876 31.7387C22.3382 31.7387 22.4873 31.7087 22.6262 31.6503C22.6262 31.7261 22.6262 31.8114 22.6262 31.8351C22.5602 32.5175 22.197 32.5791 22.3244 32.8587C22.4517 33.1382 23.6686 33.0293 23.9799 33.0909C24.5318 33.1667 25.0035 33.3752 25.5365 33.4794C26.1321 33.5412 26.7209 33.657 27.2958 33.8254C27.6401 33.9723 28.0269 34.2519 28.3618 34.4225C28.8665 34.5078 28.7863 34.7163 29.1118 34.7163C29.4372 34.7163 29.5174 34.4651 29.89 34.3609C30.1494 34.2945 30.4419 34.3988 30.7013 34.3182C30.89 34.2756 30.9749 34.0765 31.173 33.9723C31.3711 33.868 31.6729 33.8443 31.871 33.6643C31.9172 33.611 31.9508 33.548 31.9696 33.4799C31.9884 33.4119 31.9918 33.3405 31.9795 33.2709V33.2994C32.3809 33.0113 32.684 32.6059 32.8474 32.1384C32.8986 32.1277 32.9447 32.0998 32.9782 32.0593C33.0116 32.0189 33.0303 31.9682 33.0314 31.9156V31.8777C33.0829 31.838 33.125 31.7872 33.1544 31.7289C33.1838 31.6707 33.1998 31.6066 33.2012 31.5413C33.2016 31.4682 33.1867 31.3958 33.1574 31.3288C33.1282 31.2619 33.0852 31.2019 33.0314 31.1527V31.1101C33.0257 31.037 32.9977 30.9675 32.9512 30.911C32.8739 30.4594 32.6679 30.0399 32.3582 29.7034C32.0484 29.367 31.6482 29.1281 31.206 29.0155V28.9729C31.206 28.9302 31.206 28.9065 31.1541 28.9065C31.0214 28.7856 30.9222 28.6321 30.8664 28.4611C31.0502 28.5616 31.2213 28.6841 31.3758 28.826V27.6318C31.2213 27.7736 31.0502 27.8961 30.8664 27.9967C30.9246 27.8042 31.0281 27.6286 31.1683 27.4849H29.9513C30.1119 27.6234 30.2365 27.7991 30.3145 27.9967C30.1293 27.8983 29.958 27.7756 29.8051 27.6318V28.8354C29.958 28.6916 30.1293 28.5689 30.3145 28.4706C30.2365 28.6682 30.1119 28.8438 29.9513 28.9823H29.9938C29.5435 29.091 29.1337 29.3275 28.8134 29.6635C28.4931 29.9996 28.2758 30.4211 28.1873 30.8779C28.1568 30.9016 28.1317 30.9317 28.1138 30.966C28.0959 31.0004 28.0856 31.0382 28.0835 31.0769V31.1195C28.0312 31.1697 27.9896 31.23 27.9612 31.2968C27.9328 31.3636 27.9183 31.4355 27.9184 31.5081C27.9199 31.5729 27.9355 31.6365 27.964 31.6946C27.9925 31.7528 28.0333 31.8039 28.0835 31.8446V31.8825C28.0808 31.9368 28.0988 31.9901 28.1338 32.0315C28.1689 32.0728 28.2184 32.0992 28.2722 32.1052C28.3152 32.2198 28.364 32.3321 28.4184 32.4417C28.3741 32.5757 28.2969 32.6964 28.1938 32.7925C28.0908 32.8886 27.9652 32.957 27.8288 32.9913C27.0836 33.1003 26.2628 32.7828 25.5129 32.5175C25.1315 32.413 24.7889 32.1989 24.5271 31.9014C24.4605 31.82 24.4143 31.7237 24.3921 31.6207C24.37 31.5177 24.3726 31.4109 24.3997 31.3091C24.5155 31.4411 24.6546 31.5503 24.8101 31.6313C24.8179 31.5285 24.8369 31.4268 24.8667 31.328C24.9611 31.4661 25.0904 31.5766 25.2412 31.6482C25.392 31.7198 25.559 31.75 25.7251 31.7356C25.6021 31.5823 25.5181 31.4013 25.4803 31.2081C25.4425 31.0149 25.452 30.8153 25.5082 30.6267C25.6129 30.7676 25.7546 30.8764 25.9175 30.9409C26.0803 31.0055 26.2577 31.0233 26.43 30.9923C26.6023 30.9613 26.7626 30.8828 26.8931 30.7655C27.0235 30.6482 27.1188 30.4968 27.1685 30.3282C27.1029 30.3726 27.0281 30.4015 26.9499 30.4128C26.8716 30.4241 26.7917 30.4174 26.7164 30.3932C26.641 30.369 26.5721 30.328 26.5148 30.2733C26.4575 30.2185 26.4133 30.1514 26.3855 30.077C26.2581 29.7074 26.6779 28.8165 26.3006 28.1294C26.1608 27.8605 25.9547 27.6322 25.702 27.4662C25.4493 27.3003 25.1584 27.2023 24.8573 27.1816C24.9159 27.0822 24.9499 26.97 24.9563 26.8546C24.6623 27.0037 24.3219 27.0311 24.008 26.931C23.6941 26.8309 23.4318 26.6113 23.2771 26.3192C23.4623 26.3821 23.6572 26.411 23.8526 26.4045C23.197 25.869 23.2347 24.3526 23.7064 23.5612C23.7724 23.5185 23.7913 23.4759 23.8526 23.4569C23.9988 23.7507 24.428 23.7507 24.645 23.9924C24.7299 23.9071 24.7723 23.8882 24.8573 23.8123C24.8603 24.406 24.8933 24.9991 24.9563 25.5894C25.0412 26.1675 25.5931 26.1059 25.8997 26.3571C26.2345 25.9874 26.843 26.0064 26.7439 25.3714C26.6449 24.7364 26.5364 24.1583 26.5128 23.727C26.7015 24.1156 27.0647 25.5704 27.2109 25.9874C27.4515 26.6082 28.0458 26.4187 28.3807 26.6603C28.5976 26.2291 29.1495 26.1059 28.9325 25.4567C28.8665 25.2861 27.9892 23.3716 27.8288 23.002C28.1495 23.4759 29.0269 25.1629 29.2957 25.632C29.5646 26.1012 30.1494 25.8832 30.5456 26.0064C30.6211 25.6557 31.1541 25.2435 30.7673 24.6274C30.2957 23.8123 29.1306 22.386 29.0693 22.1869C29.2957 22.4049 31.0786 24.6274 31.2154 24.7554C31.6305 25.1202 32.2342 24.8359 32.5927 24.8359C32.5927 24.4284 32.9135 23.9687 32.4465 23.4948C31.9795 23.021 31.0315 22.386 30.8334 22.1443C31.4843 22.6182 32.2484 23.3195 32.7201 23.4332C32.9587 23.504 33.2102 23.519 33.4554 23.4771C33.7007 23.4352 33.9332 23.3375 34.1351 23.1916C33.8851 22.4476 34.22 22.1064 32.4984 21.3813C33.9889 21.9168 34.6445 21.6515 35.1775 21.2344C35.0624 20.9695 34.8953 20.7305 34.6862 20.5318C34.4771 20.3332 34.2303 20.1789 33.9606 20.0782C34.3263 20.0945 34.6904 20.0191 35.0198 19.8585C35.3492 19.698 35.6336 19.4576 35.8473 19.1589C35.624 18.9062 35.3532 18.7003 35.0505 18.5531C34.7477 18.4059 34.419 18.3203 34.0832 18.3011C35.2482 18.1306 36.1444 17.4292 36.2482 16.6094ZM1.74048 22.1016C1.74048 22.1016 1.74048 22.1016 1.70275 22.1396C1.57539 22.1396 1.57539 21.9737 1.59426 21.8505C1.62092 21.8527 1.64774 21.8492 1.67295 21.8402C1.69816 21.8312 1.72118 21.817 1.74048 21.7984V21.8221L1.68388 21.8647C1.72161 21.9358 1.72161 22.0163 1.74048 22.1016ZM2.14612 22.9783L1.93858 22.8551C1.95178 22.8353 1.96885 22.8184 1.98878 22.8054C2.0087 22.7925 2.03104 22.7837 2.05444 22.7797C2.07784 22.7757 2.1018 22.7766 2.12486 22.7822C2.14793 22.7878 2.1696 22.7981 2.18857 22.8125C2.19329 22.8416 2.19195 22.8713 2.18464 22.8999C2.17734 22.9284 2.16422 22.9551 2.14612 22.9783ZM2.7593 21.6704H2.67911C2.71681 21.6727 2.75461 21.6727 2.79231 21.6704C2.78133 21.6715 2.77028 21.6715 2.7593 21.6704ZM14.5842 36.9624C14.0748 36.9624 13.7069 36.6402 13.971 36.19C14.0474 36.2858 14.1434 36.3642 14.2524 36.4197C14.3614 36.4753 14.4809 36.5069 14.603 36.5123C14.5881 36.6618 14.5818 36.8121 14.5842 36.9624ZM22.3621 36.19C22.6215 36.6639 22.2583 36.9624 21.7489 36.9624C21.7563 36.8033 21.742 36.6439 21.7065 36.4886C21.8298 36.4891 21.9519 36.4637 22.0648 36.4139C22.1777 36.3641 22.279 36.2911 22.3621 36.1995V36.19ZM14.5606 8.47293C15.6345 8.24514 16.631 7.74051 17.452 7.00865C17.9343 7.03469 18.4177 7.03469 18.9 7.00865C19.7105 7.7416 20.7001 8.24527 21.7678 8.46819C21.0886 8.46819 19.8811 8.40659 19.7537 8.24073C19.7962 8.66722 20.6971 9.15057 21.2961 9.288C20.8432 9.35454 20.3807 9.29216 19.9613 9.10792C20.1587 9.42181 20.4564 9.65905 20.8056 9.78083C20.5359 10.0632 20.2047 10.2791 19.8381 10.4114C19.4715 10.5438 19.0794 10.5891 18.6925 10.5438C18.8092 10.676 18.9557 10.7782 19.1199 10.8416C19.2841 10.9051 19.461 10.9281 19.6358 10.9087C18.8446 12.0789 18.3448 13.4229 18.1783 14.8276C18.0133 13.4181 17.5099 12.07 16.7114 10.8992C16.882 10.9184 17.0547 10.8951 17.2143 10.8315C17.3739 10.7679 17.5154 10.6658 17.6265 10.5343C17.241 10.5792 16.8504 10.5337 16.4854 10.4013C16.1203 10.2689 15.7909 10.0533 15.5228 9.77135C15.8727 9.65093 16.1708 9.41336 16.3671 9.09845C15.9479 9.28368 15.4852 9.3461 15.0323 9.27852C15.6266 9.1411 16.5463 8.65774 16.5841 8.23125C16.4284 8.41133 15.2445 8.47293 14.5606 8.47293ZM3.86773 21.3577L3.53284 21.4998V21.4714L3.86773 21.3577ZM11.3721 26.8452C11.3821 26.9605 11.4176 27.0722 11.4758 27.1721C11.1787 27.1944 10.8924 27.2934 10.6445 27.4594C10.3966 27.6254 10.1956 27.8529 10.0608 28.1199C9.65046 28.807 10.0608 29.6979 9.96177 30.0675C9.93454 30.1418 9.89084 30.2089 9.83397 30.2636C9.77711 30.3184 9.70857 30.3595 9.63356 30.3837C9.55856 30.4079 9.47905 30.4146 9.40107 30.4033C9.32309 30.3921 9.24869 30.3631 9.1835 30.3187C9.23314 30.4866 9.32811 30.6373 9.45787 30.7543C9.58762 30.8712 9.74709 30.9498 9.91858 30.9812C10.0901 31.0126 10.2669 30.9957 10.4294 30.9322C10.5918 30.8688 10.7337 30.7614 10.8391 30.622C10.8935 30.8145 10.9014 31.0173 10.862 31.2135C10.8226 31.4096 10.7371 31.5935 10.6127 31.7498C10.7769 31.7646 10.942 31.7345 11.0907 31.6628C11.2393 31.591 11.3658 31.4803 11.457 31.3423C11.4905 31.4402 11.5111 31.5422 11.5183 31.6455C11.675 31.5687 11.8134 31.4588 11.9239 31.3233C11.9693 31.5005 11.9693 31.6863 11.9239 31.8635C11.7333 31.9885 11.5348 32.1009 11.3296 32.2C10.8044 32.4625 10.2481 32.6568 9.67405 32.7781C9.43375 32.8106 9.18948 32.7634 8.97834 32.6436C8.7672 32.5239 8.60075 32.3382 8.50429 32.1147C8.35807 31.6408 7.95243 31.4702 7.62698 31.7687C7.56574 31.7242 7.49009 31.7043 7.41497 31.7131C7.33986 31.7218 7.27075 31.7586 7.22134 31.8161C7.16424 31.6886 7.0861 31.5716 6.99022 31.4702C7.04642 31.3555 7.05874 31.2241 7.02482 31.1009C6.99091 30.9778 6.91313 30.8714 6.80626 30.802C6.80626 30.3282 6.48553 30.3282 6.38176 30.1386C6.27799 29.9491 6.31572 29.9064 6.46666 29.8875C6.44074 29.8551 6.40857 29.8283 6.3721 29.8088C6.33562 29.7893 6.29559 29.7773 6.25441 29.7737C6.28079 29.6602 6.26459 29.5409 6.20889 29.4386C6.1532 29.3363 6.06193 29.2582 5.95253 29.2193L3.48096 24.0919C3.5106 24.0559 3.53168 24.0135 3.5426 23.9681C3.55353 23.9226 3.55401 23.8753 3.54401 23.8296C3.53401 23.7839 3.51379 23.7411 3.48489 23.7045C3.45598 23.6678 3.41915 23.6383 3.37719 23.6181V23.5754C3.38067 23.5423 3.38067 23.509 3.37719 23.4759L3.59416 23.4285C4.06583 23.3148 4.8441 22.5897 5.50444 22.1396C5.27332 22.3812 4.31111 23.0873 3.8866 23.4901C3.46209 23.8929 3.67906 24.2673 3.7451 24.6416L3.83471 24.8359C4.1979 24.8359 4.74033 25.0776 5.14597 24.7459C5.27332 24.6179 7.05625 22.3765 7.29681 22.1775C7.20247 22.3765 6.07989 23.8029 5.57048 24.6179C5.18842 25.234 5.745 25.6462 5.80631 25.9969C6.21195 25.8737 6.74966 26.1154 7.05625 25.6226C7.36284 25.1297 8.20714 23.4664 8.52788 22.9925C8.40052 23.3622 7.48548 25.2766 7.42416 25.4472C7.20247 26.0964 7.75433 26.2196 7.97602 26.6509C8.31091 26.4092 8.91937 26.5987 9.14105 25.978C9.28727 25.5609 9.65518 24.1061 9.84385 23.7176C9.82026 24.1488 9.69763 24.7222 9.61273 25.3619C9.52783 26.0017 10.1221 25.978 10.4334 26.3476C10.7353 26.0964 11.2919 26.158 11.3768 25.5799C11.4617 25.0018 11.4806 23.8218 11.4806 23.8218C11.5655 23.8976 11.6079 23.9166 11.7022 24.0019C11.9098 23.7602 12.339 23.7602 12.4805 23.4664C12.5465 23.4664 12.5654 23.528 12.6267 23.5707C13.0984 24.3573 13.1361 25.8737 12.4805 26.4139C12.6758 26.419 12.8704 26.3901 13.056 26.3286C12.7588 26.9068 12.1126 27.1153 11.3721 26.8452ZM15.9898 34.0197C15.5967 34.4957 15.2785 35.0295 15.0464 35.6024C14.5747 35.5598 14.6785 35.0053 14.8247 34.721C15.1266 34.1666 16.3577 33.4463 16.9756 32.7212C16.6794 33.178 16.3499 33.612 15.9898 34.0197ZM17.3246 35.0053C17.0635 36.0101 16.9491 37.0477 16.985 38.0855C16.1171 37.6117 16.6077 35.882 16.9425 35.1285C17.3764 34.125 17.6777 33.0688 17.8387 31.9867C18.1076 32.6075 17.5086 34.3466 17.3246 35.0053ZM19.3387 38.0855C19.3798 37.0472 19.2637 36.0086 18.9943 35.0053C18.8151 34.3466 18.2161 32.6075 18.4849 31.9867C18.6437 33.0693 18.9451 34.1258 19.3811 35.1285C19.7254 35.882 20.2113 37.6306 19.3387 38.0855ZM21.4848 34.721C21.6357 35.0053 21.7159 35.5598 21.2678 35.6024C21.0288 35.033 20.7112 34.5002 20.3245 34.0197C19.9595 33.616 19.6297 33.1816 19.3387 32.7212C19.9613 33.4463 21.1923 34.1666 21.4942 34.721H21.4848ZM21.381 27.229C20.5582 28.741 19.4644 30.0873 18.1548 31.2001C16.8471 30.0865 15.755 28.7403 14.9332 27.229C13.8631 24.927 13.2235 22.4468 13.0465 19.9123C12.9777 19.1117 13.0724 18.3055 13.3248 17.5429C14.1878 17.4858 15.0411 17.3267 15.8671 17.0691C16.7014 16.7201 17.4751 16.2403 18.1595 15.6474C18.8457 16.2401 19.621 16.7199 20.4565 17.0691C21.2809 17.3266 22.1327 17.4856 22.9941 17.5429C23.2501 18.3047 23.3465 19.1114 23.2771 19.9123C23.0979 22.4465 22.4585 24.9262 21.3904 27.229H21.381Z" fill="#0F1423"/>
<path d="M75.0245 7.65783L75.3075 4.79087H75.2037L74.1095 7.27399L69.1427 15.202H68.3928L63.1572 7.24556L62.11 4.81457H61.9874L62.3931 7.6294V19.1967H59.9969V1.28418H61.8836L67.9447 10.4253L68.888 12.3682H68.9399L69.8314 10.3731L75.5622 1.28418H77.5715V19.1967H75.0245V7.65783Z" fill="#0F1423"/>
<path d="M90.0898 11.5201L90.4483 8.85687H90.17L88.9059 11.3732L82.642 19.1969H80.8308V5.76245H83.1892V13.6952L83.01 16.0645H83.293L84.4297 13.771L90.5615 5.76245H92.3963V19.1969H90.0379L90.0898 11.5201Z" fill="#0F1423"/>
<path d="M104.712 13.335H97.9999V19.1969H95.6415V5.76245H97.9999V11.2405H104.712V5.76245H107.07V19.1969H104.712V13.335Z" fill="#0F1423"/>
<path d="M123.579 22.5756H122.003L121.569 19.1969H110.301V5.76245H112.66V17.2019H119.103V5.76245H121.461V17.2019H123.579V22.5756Z" fill="#0F1423"/>
<path d="M134.342 11.5201L134.701 8.85687H134.427L133.173 11.3732L126.904 19.1969H125.098V5.76245H127.456V13.6952L127.277 16.0645H127.555L128.729 13.7852L134.861 5.77667H136.696V19.1969H134.338L134.342 11.5201Z" fill="#0F1423"/>
<path d="M146.719 19.2726C146.346 19.4031 145.958 19.4844 145.564 19.5142C145.196 19.5427 144.87 19.5522 144.582 19.5522C142.815 19.5522 141.452 18.9693 140.493 17.8035C139.534 16.6378 139.054 14.8671 139.054 12.4914C139.054 10.2578 139.581 8.53451 140.635 7.32138C141.688 6.10825 143.216 5.50327 145.219 5.50643C145.455 5.50643 145.691 5.50643 145.946 5.53012C146.207 5.55152 146.465 5.59431 146.719 5.65807V1.28418H149.078V5.6865C149.439 5.61254 149.804 5.56032 150.172 5.53012C150.46 5.53012 150.714 5.50643 150.936 5.50643C152.857 5.50643 154.305 6.03559 155.28 7.09392C156.255 8.15224 156.742 9.8582 156.742 12.2118C156.752 13.222 156.62 14.2287 156.351 15.202C156.114 16.0476 155.717 16.8394 155.181 17.5334C154.683 18.1679 154.047 18.68 153.323 19.0309C152.538 19.4 151.679 19.5832 150.813 19.5664C150.54 19.5612 150.268 19.5407 149.997 19.5048C149.678 19.4691 149.362 19.4041 149.054 19.3105V24.3146H146.696L146.719 19.2726ZM145.243 17.6614C145.464 17.6614 145.691 17.6614 145.917 17.633C146.205 17.6104 146.49 17.5677 146.771 17.505V7.58201C146.464 7.51567 146.21 7.46828 146.007 7.44459C145.771 7.41596 145.533 7.40329 145.295 7.40668C144.76 7.37889 144.226 7.47613 143.735 7.69074C143.244 7.90535 142.809 8.23149 142.465 8.6435C141.795 9.47278 141.455 10.757 141.455 12.4961C141.452 13.1845 141.525 13.8711 141.672 14.5433C141.8 15.1275 142.033 15.6833 142.361 16.1829C142.675 16.6594 143.106 17.0463 143.613 17.3062C144.119 17.5661 144.684 17.69 145.252 17.6661L145.243 17.6614ZM150.431 7.40194C150.162 7.40194 149.931 7.40194 149.743 7.42563C149.501 7.4546 149.263 7.50535 149.03 7.57727V17.5571C149.279 17.6078 149.531 17.638 149.785 17.6472C150.03 17.6472 150.294 17.6472 150.587 17.6472C151.141 17.6791 151.694 17.5646 152.19 17.3152C152.687 17.0658 153.11 16.6901 153.417 16.2255C154.046 15.2778 154.36 13.9304 154.36 12.1834C154.365 11.5129 154.297 10.8439 154.157 10.1883C154.042 9.6395 153.815 9.12025 153.492 8.66245C153.18 8.24529 152.763 7.91836 152.285 7.7147C151.689 7.4798 151.051 7.37324 150.412 7.40194H150.431Z" fill="#0F1423"/>
<path d="M159.049 5.76226H160.624L161.096 7.47769H161.313C161.765 6.81632 162.379 6.28276 163.096 5.92812C163.863 5.55524 164.706 5.36703 165.558 5.37842C167.492 5.37842 168.935 5.92022 169.888 7.00382C170.84 8.08742 171.312 9.81391 171.303 12.1833C171.317 13.2231 171.158 14.2579 170.831 15.2445C170.547 16.1057 170.088 16.8981 169.482 17.5713C168.889 18.216 168.158 18.7182 167.345 19.0403C166.444 19.3935 165.483 19.5673 164.515 19.5521C164.176 19.5521 163.864 19.5521 163.572 19.5142C163.31 19.4931 163.049 19.4503 162.794 19.3862C162.558 19.3294 162.322 19.2583 162.081 19.1825C161.841 19.1066 161.61 19.0166 161.346 18.9124V24.3146H158.987L159.049 5.76226ZM165.006 7.37344C164.152 7.3281 163.312 7.60154 162.647 8.14112C162.003 8.7847 161.572 9.61197 161.412 10.5105V16.6899C161.801 16.9617 162.227 17.1771 162.676 17.3296C163.242 17.4971 163.831 17.5738 164.421 17.5571C165.023 17.5878 165.625 17.4819 166.181 17.2473C166.737 17.0127 167.233 16.6554 167.633 16.2018C168.407 15.2983 168.793 13.9509 168.793 12.1596C168.849 10.9386 168.544 9.72828 167.916 8.68134C167.347 7.80941 166.377 7.37344 165.006 7.37344Z" fill="#0F1423"/>
<path d="M176.189 10.8991C176.732 10.8138 177.236 10.7617 177.703 10.7333C178.17 10.7048 178.59 10.6954 178.963 10.6954C179.802 10.6773 180.639 10.781 181.448 11.0034C182.041 11.166 182.593 11.4536 183.066 11.8469C183.467 12.1851 183.773 12.623 183.953 13.1169C184.126 13.6231 184.212 14.155 184.208 14.6902C184.208 16.314 183.716 17.4955 182.731 18.2348C181.747 18.974 180.142 19.3452 177.916 19.3484C177.203 19.3484 176.501 19.3484 175.854 19.3484C175.208 19.3484 174.529 19.2962 173.869 19.2441V5.76231H176.227L176.189 10.8991ZM176.189 17.197C176.908 17.2983 177.633 17.349 178.359 17.3486C179.573 17.3486 180.422 17.1354 180.906 16.7089C181.155 16.4803 181.35 16.1987 181.476 15.8847C181.603 15.5706 181.658 15.2321 181.637 14.8939C181.644 14.5735 181.584 14.2551 181.46 13.9595C181.337 13.664 181.153 13.3979 180.92 13.1785C180.439 12.7204 179.611 12.4898 178.434 12.4866C178.114 12.4866 177.755 12.4866 177.359 12.5245C176.966 12.5516 176.575 12.607 176.189 12.6904V17.197ZM186.656 5.75757H189.014V19.1967H186.656V5.75757Z" fill="#0F1423"/>
<path d="M59.9971 21.9073C60.7653 21.7465 61.544 21.6404 62.3271 21.5898C63.1714 21.5282 63.9969 21.4998 64.8129 21.4998C65.6965 21.5012 66.5785 21.5773 67.4495 21.7272C68.3016 21.8683 69.1232 22.1552 69.8786 22.5755C70.6791 23.0084 71.3397 23.6622 71.7826 24.4598C72.2255 25.2574 72.4323 26.1656 72.3785 27.0773C72.4068 28.0334 72.1874 28.9805 71.7418 29.8258C71.331 30.572 70.7489 31.2088 70.0437 31.6834C69.3085 32.1766 68.4902 32.5314 67.6288 32.7307C66.7023 32.9567 65.7521 33.0697 64.7987 33.0671H64.327L63.6667 33.0387C63.4356 33.0387 63.195 33.0387 63.0016 33.0008C62.8082 32.9629 62.6337 32.9676 62.53 32.9534V39.6398H59.9829L59.9971 21.9073ZM64.8883 23.7507C64.4167 23.7507 63.9827 23.7507 63.5535 23.7744C63.2135 23.7808 62.8751 23.8237 62.5441 23.9023V30.6882C62.6804 30.7287 62.8218 30.7495 62.9639 30.7498L63.5771 30.7878C63.7893 30.7878 63.9921 30.7878 64.1902 30.7878H64.6195C65.2243 30.7898 65.8284 30.7439 66.426 30.6503C66.9928 30.5677 67.5405 30.3848 68.0438 30.1101C68.5282 29.8415 68.9333 29.4492 69.2183 28.9728C69.5377 28.3943 69.6911 27.7382 69.6617 27.0773C69.6868 26.4916 69.5356 25.912 69.2277 25.414C68.9457 24.981 68.5618 24.6245 68.1099 24.3762C67.6284 24.1178 67.107 23.9431 66.5675 23.8597C66.0114 23.7797 65.45 23.7433 64.8883 23.7507Z" fill="#0F1423"/>
<path d="M72.9633 32.9393C72.9474 31.9272 73.0939 30.9191 73.3973 29.9539C73.6578 29.1255 74.0921 28.3628 74.6708 27.7172C75.2345 27.0906 75.9352 26.6039 76.7179 26.2955C77.601 25.9631 78.539 25.8023 79.4819 25.8217C80.4601 25.8008 81.4319 25.9847 82.3355 26.3619C83.1208 26.6962 83.8182 27.2087 84.3731 27.8593C84.9272 28.517 85.3385 29.2837 85.5806 30.1103C85.8541 31.0326 85.9876 31.9912 85.9768 32.9535C85.9893 33.9521 85.8395 34.9461 85.5335 35.8963C85.2642 36.7166 84.8308 37.4729 84.2599 38.1188C83.7007 38.7462 83.0028 39.2331 82.2223 39.5404C81.3476 39.8739 80.4172 40.0348 79.4819 40.0143C78.4881 40.0386 77.5002 39.8546 76.5811 39.4741C75.7997 39.1443 75.1054 38.6365 74.5529 37.9908C74.0049 37.3366 73.5985 36.5748 73.3595 35.7541C73.0874 34.8412 72.9538 33.8923 72.9633 32.9393ZM75.5104 32.9393C75.5097 33.5631 75.581 34.1848 75.7226 34.7922C75.8516 35.3716 76.085 35.9225 76.4113 36.4176C76.7249 36.8941 77.1469 37.2888 77.6423 37.5691C78.2132 37.8753 78.854 38.0256 79.5007 38.0051C82.1201 38.0051 83.4282 36.3165 83.4251 32.9393C83.4276 32.2935 83.3563 31.6496 83.2128 31.0201C83.0912 30.437 82.8642 29.8813 82.543 29.3805C82.2297 28.9096 81.8114 28.5186 81.3214 28.2384C80.5388 27.8479 79.6527 27.7182 78.7918 27.8682C77.9308 28.0181 77.1399 28.44 76.5339 29.0725C75.8515 29.9254 75.5104 31.2144 75.5104 32.9393Z" fill="#0F1423"/>
<path d="M98.8158 38.7206C98.1814 39.1598 97.4737 39.4808 96.7263 39.6684C95.9027 39.8856 95.0544 39.9939 94.2028 39.9906C93.2238 40.0167 92.2497 39.8426 91.3398 39.4788C90.5914 39.1717 89.9303 38.6833 89.4153 38.0572C88.9045 37.4 88.5394 36.6406 88.3446 35.83C88.115 34.884 88.0041 33.9129 88.0145 32.9393C88.0145 30.6679 88.5616 28.9145 89.6559 27.6793C90.7549 26.4424 92.3256 25.8217 94.3726 25.8217C95.7937 25.7958 97.203 26.0854 98.4998 26.6699L97.8913 28.5654C97.4213 28.3199 96.9242 28.1307 96.4103 28.0015C95.8441 27.8608 95.2625 27.7923 94.6792 27.7977C91.9278 27.7977 90.5521 29.5037 90.5521 32.9156C90.5488 33.5544 90.6248 34.1912 90.7785 34.8111C90.914 35.3934 91.1607 35.9438 91.5048 36.4318C91.8521 36.9115 92.3081 37.3014 92.835 37.5691C93.4595 37.8765 94.1492 38.0262 94.8443 38.0051C95.4776 38.0169 96.1082 37.9174 96.7074 37.7113C97.1826 37.5421 97.6307 37.3042 98.0375 37.0052L98.8158 38.7206Z" fill="#0F1423"/>
<path d="M110.683 38.7206C110.049 39.1606 109.341 39.4817 108.594 39.6684C107.77 39.8859 106.922 39.9943 106.07 39.9906C105.091 40.0167 104.117 39.8426 103.207 39.4788C102.46 39.1693 101.799 38.6813 101.283 38.0572C100.772 37.4 100.407 36.6406 100.212 35.83C99.9846 34.8836 99.8737 33.9128 99.8818 32.9393C99.8818 30.6679 100.43 28.9145 101.528 27.6793C102.625 26.444 104.198 25.8248 106.245 25.8217C107.666 25.7958 109.075 26.0854 110.372 26.6699L109.763 28.5654C109.294 28.3192 108.796 28.1299 108.282 28.0015C107.716 27.8605 107.134 27.792 106.551 27.7977C103.803 27.7977 102.427 29.5037 102.424 32.9156C102.42 33.5548 102.498 34.1918 102.655 34.8111C102.795 35.3915 103.043 35.9399 103.386 36.427C103.736 36.9047 104.191 37.2941 104.716 37.5643C105.342 37.8722 106.034 38.0218 106.73 38.0003C107.362 38.0118 107.991 37.9124 108.589 37.7065C109.065 37.5396 109.513 37.3015 109.919 37.0004L110.683 38.7206Z" fill="#0F1423"/>
<path d="M122.296 31.963L122.654 29.3046H122.371L121.126 31.8114L114.857 39.6398H113.051V26.2054H115.409V34.1192L115.23 36.4886H115.508L116.683 34.214L122.815 26.2007H124.649V39.6398H122.291L122.296 31.963Z" fill="#0F1423"/>
<path d="M137.347 31.963L137.705 29.3046H137.422L136.177 31.8114L129.913 39.6398H128.102V26.2054H130.46V34.1192L130.281 36.4886H130.564L131.734 34.214L137.866 26.2007H139.701V39.6398H137.342L137.347 31.963Z" fill="#0F1423"/>
<path d="M49.2428 1.28906H46.7712V10.8709H49.2428V1.28906Z" fill="#60C4EE"/>
<path d="M49.2428 10.8708H46.7712V20.4527H49.2428V10.8708Z" fill="#2888C3"/>
<path d="M49.2428 20.4526H46.7712V30.0344H49.2428V20.4526Z" fill="#065D89"/>
<path d="M49.2428 30.0391H46.7712V39.6209H49.2428V30.0391Z" fill="#E3EBF1"/>
</g>
<defs>
<clipPath id="clip0_114_986">
<rect width="189" height="40" fill="white"/>
</clipPath>
</defs>
</svg>
